# xmcd CD database file
#
# Track frame offsets:
#	150
#	30610
#	54545
#	73122
#	86257
#	111992
#	130077
#	146522
#	166632
#	190738
#
# Disc length: 2840 seconds
#
# Revision: 0
# Processed by: cddbd v1.5.2PL0 Copyright (c) Steve Scherf et al.
# Submitted via: CDex 1.51
#
DISCID=800b160a
DTITLE=Camachofones - ISTO NAO E NADA
DYEAR=2016
DGENRE=Jazz
TTITLE0=Abertura
TTITLE1=Toulisman
TTITLE2=Nr2
TTITLE3=Sambinha
TTITLE4=NaBorda
TTITLE5=Technomoney
TTITLE6=SetePassosNaRua
TTITLE7=Skaneivasse
TTITLE8=Pu-Ta
TTITLE9=BluesOnTheCity
EXTD=YEAR: 2016
EXTT0=
EXTT1=
EXTT2=
EXTT3=
EXTT4=
EXTT5=
EXTT6=
EXTT7=
EXTT8=
EXTT9=
PLAYORDER=
